<?xml version="1.0" encoding="utf-8"?>
<!-- Generator: Adobe Illustrator 22.0.1, SVG Export Plug-In . SVG Version: 6.00 Build 0)  -->
<svg version="1.1" id="Layer_1" xmlns="http://www.w3.org/2000/svg" xmlns:xlink="http://www.w3.org/1999/xlink" x="0px" y="0px"
	 viewBox="0 0 678.3 699.5" style="enable-background:new 0 0 678.3 699.5;" xml:space="preserve">
<style type="text/css">
	.st0{opacity:0.3;fill:#FFFFFF;stroke:#000000;stroke-width:9;stroke-miterlimit:10;}
	.st1{opacity:8.000000e-02;fill:#FFFFFF;stroke:#000000;stroke-width:9;stroke-miterlimit:10;}
	.st2{opacity:0.2;fill:#FFFFFF;stroke:#000000;stroke-width:9;stroke-miterlimit:10;}
	.st3{opacity:0.15;fill:#FFFFFF;stroke:#000000;stroke-width:9;stroke-miterlimit:10;}
</style>
<ellipse class="st0" cx="213" cy="139.9" rx="136" ry="128"/>
<ellipse class="st1" cx="149" cy="104.4" rx="42" ry="42.5"/>
<ellipse class="st1" cx="164.5" cy="180.4" rx="17.5" ry="16.5"/>
<ellipse class="st0" cx="475" cy="316.9" rx="136" ry="128"/>
<ellipse class="st0" cx="239" cy="526.9" rx="87" ry="85"/>
<ellipse class="st1" cx="542" cy="302.4" rx="42" ry="42.5"/>
<ellipse class="st1" cx="507.5" cy="382.4" rx="17.5" ry="16.5"/>
<circle class="st1" cx="479.5" cy="354.4" r="8.5"/>
<ellipse class="st1" cx="231.5" cy="563.4" rx="17.5" ry="16.5"/>
<circle class="st1" cx="267.5" cy="584.4" r="8.5"/>
<ellipse class="st1" cx="412.5" cy="145.4" rx="17.5" ry="16.5"/>
<ellipse class="st2" cx="459" cy="71.4" rx="34" ry="34.5"/>
<ellipse class="st2" cx="379" cy="626.4" rx="34" ry="34.5"/>
<ellipse class="st3" cx="81" cy="665.4" rx="25" ry="23.5"/>
<ellipse class="st3" cx="102.5" cy="607.9" rx="12.5" ry="12"/>
</svg>
