<?xml version="1.0" encoding="utf-8"?>
<!-- Generator: Adobe Illustrator 22.0.1, SVG Export Plug-In . SVG Version: 6.00 Build 0)  -->
<svg version="1.1" id="Layer_1" xmlns="http://www.w3.org/2000/svg" xmlns:xlink="http://www.w3.org/1999/xlink" x="0px" y="0px"
	 viewBox="0 0 1013.6 351.9" style="enable-background:new 0 0 1013.6 351.9;" xml:space="preserve">
<style type="text/css">
	.st0{fill:#D42F00;}
	.st1{fill:#FFFFFF;}
	.st2{fill:#F9F7F7;stroke:#960015;stroke-width:7;stroke-miterlimit:10;}
	.st3{fill:#300E0E;}
	.st4{fill:#9B230F;}
	.st5{fill:#990011;}
	.st6{fill:#B5230F;}
	.st7{fill:#800E0E;}
	.st8{fill:#620E0E;}
	.st9{fill:#A10005;}
</style>
<path class="st0" d="M875.7,86.3C837.4,64.3,787.8,51,733.6,51c-41.4,0-80.2,7.8-113.3,21.3C560.3,96.7,519,139.9,514.1,189.9
	c-0.4,3.8,2.7,7.1,6.5,7.1h21c5.4,0,9.8,4.4,9.8,9.8c0,1.5-0.3,2.9-0.8,4.2h76.7c-0.6-0.3-1.2-0.5-1.8-0.8c-0.1,0-0.2-0.1-0.3-0.1
	c-0.6-0.3-1.2-0.6-1.8-0.9c-0.6-0.3-1.1-0.6-1.7-0.9c-0.6-0.3-1.2-0.7-1.8-1.1c-0.2-0.1-0.4-0.3-0.6-0.4c-0.5-0.3-1-0.6-1.5-1
	c-0.4-0.3-0.9-0.6-1.3-0.9c-0.2-0.2-0.5-0.3-0.7-0.5c-0.5-0.4-1-0.8-1.5-1.1c-0.6-0.5-1.2-1-1.8-1.5c-0.4-0.3-0.7-0.6-1-0.9
	c-0.3-0.2-0.5-0.5-0.8-0.7c-0.3-0.3-0.6-0.6-0.9-0.9c-0.9-0.9-1.8-1.8-2.7-2.8c-0.2-0.2-0.4-0.5-0.6-0.7c-0.3-0.4-0.6-0.7-0.9-1.1
	c-0.3-0.3-0.5-0.7-0.8-1c-0.7-0.8-1.3-1.7-1.9-2.6c-0.2-0.2-0.3-0.5-0.5-0.7c-0.1-0.1-0.2-0.2-0.2-0.4c-1-1.4-1.9-2.9-2.8-4.5
	c-0.2-0.4-0.4-0.8-0.7-1.2c0,0,0-0.1,0-0.1c-0.2-0.4-0.4-0.8-0.6-1.1c-0.2-0.4-0.4-0.8-0.6-1.2c-0.2-0.4-0.4-0.8-0.6-1.2
	c0,0,0,0,0,0c-0.2-0.5-0.4-1-0.6-1.5c-0.2-0.5-0.4-1-0.6-1.5c-0.2-0.5-0.4-0.9-0.5-1.4c-0.1-0.3-0.2-0.7-0.4-1
	c-0.1-0.3-0.2-0.7-0.3-1c-0.1-0.4-0.2-0.7-0.3-1.1c-0.2-0.5-0.3-1-0.4-1.5c-0.3-1-0.5-1.9-0.7-2.9c-0.1-0.3-0.1-0.6-0.2-0.9
	c-0.5-2.2-0.8-4.5-1-6.9c0-0.3-0.1-0.7-0.1-1c0-0.6-0.1-1.2-0.1-1.8c0-0.3,0-0.7,0-1c0-0.6,0-1.3,0-1.9c0-33.7,26.6-61,59.5-61
	c0.5,0,1,0,1.5,0c1,0,2.1,0.1,3.1,0.2c0.5,0,0.9,0.1,1.3,0.1c0.9,0.1,1.7,0.2,2.6,0.3c0.3,0,0.6,0.1,0.9,0.1
	c0.4,0.1,0.8,0.1,1.1,0.2c0.5,0.1,0.9,0.2,1.4,0.3c0.3,0.1,0.6,0.1,0.8,0.2c0.4,0.1,0.7,0.2,1.1,0.2c0,0,0.1,0,0.1,0
	c0.3,0.1,0.7,0.2,1,0.3c0.7,0.2,1.5,0.4,2.2,0.6c0.3,0.1,0.6,0.2,0.9,0.3c2.2,0.7,4.4,1.6,6.5,2.6c0.4,0.2,0.8,0.4,1.1,0.6
	c0.4,0.2,0.9,0.4,1.3,0.7c0.4,0.2,0.8,0.4,1.1,0.6c1.8,1,3.5,2.1,5.2,3.2c0.4,0.2,0.7,0.5,1,0.7c0.5,0.3,0.9,0.7,1.4,1
	c0.2,0.2,0.4,0.3,0.6,0.5c0.9,0.7,1.8,1.5,2.6,2.2c0.3,0.2,0.5,0.5,0.8,0.7c0.4,0.4,0.8,0.7,1.2,1.1c0.2,0.2,0.5,0.4,0.7,0.7
	c0.2,0.2,0.4,0.4,0.6,0.6c0.2,0.2,0.5,0.5,0.7,0.8c0.5,0.5,0.9,1,1.4,1.5c0.4,0.4,0.7,0.8,1,1.2c0.2,0.2,0.3,0.4,0.5,0.6
	c0.4,0.5,0.8,1,1.2,1.5c0,0.1,0.1,0.1,0.1,0.2c0.3,0.4,0.7,0.9,1,1.3c0.2,0.2,0.3,0.5,0.5,0.7c0.4,0.5,0.7,1,1.1,1.6
	c0.4,0.6,0.8,1.2,1.1,1.8c0.1,0.1,0.1,0.2,0.1,0.3c0.4,0.6,0.7,1.2,1,1.8c0.3,0.6,0.7,1.2,1,1.8c0.1,0.1,0.1,0.2,0.2,0.4
	c0.3,0.5,0.5,1.1,0.8,1.6c0.4,0.9,0.8,1.7,1.1,2.6c0.3,0.6,0.5,1.3,0.7,1.9c0,0,0,0,0,0c0.1,0.2,0.1,0.4,0.2,0.6
	c0.1,0.4,0.3,0.8,0.4,1.1c0.2,0.5,0.3,0.9,0.4,1.4c0.2,0.7,0.4,1.4,0.6,2.1c0.1,0.4,0.2,0.8,0.3,1.2c0.3,1.3,0.6,2.6,0.8,4
	c0.1,0.4,0.2,0.9,0.2,1.3c0,0.2,0.1,0.4,0.1,0.7c0,0.3,0.1,0.7,0.1,1.1c0.1,0.6,0.2,1.2,0.2,1.8c0,0.3,0.1,0.6,0.1,0.9
	c0,0.3,0.1,0.7,0.1,1c0,0.3,0,0.7,0.1,1c0,0.3,0,0.7,0,1c0,0.7,0,1.4,0,2.1c0,25.1-14.8,46.6-35.9,56h253.5c0-0.3,0-0.5,0-0.8
	c0-0.8,0.1-1.6,0.3-2.4c0.1-0.4,0.2-0.8,0.3-1.1c0.4-1.1,0.9-2.2,1.7-3.2c0.3-0.4,0.6-0.8,1-1.1c0.7-0.7,1.5-1.3,2.5-1.9l16.9-9.4
	l0.1-0.1l2.5-1.4C948.8,148.2,919.7,111.5,875.7,86.3z M758.3,309c0-8.5,3.5-16.3,9.1-21.9c5.6-5.6,13.4-9.1,21.9-9.1h-4
	c-8.5,0-16.3,3.5-21.9,9.1c-5.6,5.6-9.1,13.4-9.1,21.9c0,17,14,31,31,31h4C772.2,340,758.3,326.1,758.3,309z"/>
<path class="st0" d="M551.3,206.8c0,1.5-0.3,2.9-0.8,4.2h-6.9v-10.8c0-1.8-1.5-3.2-3.2-3.2h1.1C546.9,197,551.3,201.4,551.3,206.8z"
	/>
<path class="st0" d="M710.3,155c0,25.1-14.8,46.6-35.9,56c-7.2,3.2-15.2,5-23.6,5s-16.4-1.8-23.6-5c-21.1-9.4-35.9-30.9-35.9-56
	c0-33.7,26.6-61,59.5-61S710.3,121.3,710.3,155z"/>
<path class="st0" d="M933.8,219.9l15.7,8.9c0,0,0,0.1,0,0.1l-0.3-0.1l-15.7-8.9c-0.6-0.3-1.2-0.7-1.7-1.2c-0.2-0.1-0.3-0.2-0.4-0.4
	c-0.5-0.4-0.9-0.9-1.3-1.4c-0.1-0.2-0.2-0.3-0.4-0.5c-0.1-0.2-0.2-0.3-0.3-0.5c-0.1-0.1-0.2-0.3-0.2-0.4c-0.1-0.2-0.2-0.4-0.3-0.5
	c-0.1-0.2-0.2-0.3-0.2-0.5c-0.2-0.4-0.3-0.9-0.5-1.4c0-0.2-0.1-0.4-0.1-0.6c0-0.2-0.1-0.4-0.1-0.5c0,0,0,0,0,0v0
	c0-0.3-0.1-0.6-0.1-0.9c0,0,0-0.1,0-0.1c0-0.3,0-0.5,0-0.8c0-0.8,0.1-1.6,0.3-2.4c0.1-0.4,0.2-0.8,0.3-1.1c0.4-1.1,0.9-2.2,1.7-3.2
	c0.3-0.4,0.6-0.8,1-1.1c0.7-0.7,1.5-1.3,2.5-1.9l16.9-9.4l-16.6,9.4c-1,0.5-1.8,1.2-2.5,1.9c-0.4,0.4-0.7,0.7-1,1.1
	c-0.7,1-1.3,2.1-1.7,3.2c-0.1,0.4-0.2,0.8-0.3,1.1c-0.2,0.8-0.3,1.6-0.3,2.4c0,0.3,0,0.5,0,0.8c0,0,0,0.1,0,0.1
	c0,0.3,0.1,0.6,0.1,0.9v0c0,0,0,0,0,0c0,0.2,0.1,0.4,0.1,0.5c0,0.2,0.1,0.4,0.1,0.6c0.1,0.5,0.3,0.9,0.5,1.4
	c0.1,0.2,0.1,0.3,0.2,0.5c0.1,0.2,0.2,0.4,0.3,0.5c0.1,0.1,0.1,0.3,0.2,0.4c0.1,0.2,0.2,0.3,0.3,0.5c0.1,0.2,0.2,0.3,0.4,0.5
	c0.4,0.5,0.8,1,1.3,1.4c0.1,0.1,0.3,0.2,0.4,0.4C932.6,219.2,933.2,219.6,933.8,219.9z"/>
<path class="st0" d="M956.8,200.9c-0.1,0.4,0,0.8,0.1,1.2c0.2,0.6,0.5,1.3,0.9,1.5l9.9,6.6l8,5.4c2.3,1.6,4.4,4.9,5.4,8.7l2.5,9.2
	c2.6,9.4-1.3,16.8-7,13.4L953,232.9l-11.1-6.7l0,0l-0.2-0.1l-12-7.2c-0.5-0.3-0.9-0.6-1.3-1c-0.1-0.1-0.2-0.2-0.4-0.3
	c-0.4-0.4-0.8-0.9-1.2-1.4c-0.1-0.2-0.2-0.3-0.4-0.5c-0.1-0.2-0.2-0.3-0.3-0.5c-0.1-0.1-0.2-0.3-0.3-0.4c-0.1-0.2-0.2-0.4-0.3-0.5
	c-0.1-0.2-0.2-0.3-0.3-0.5c-0.2-0.5-0.5-0.9-0.7-1.4c-0.1-0.2-0.2-0.4-0.3-0.6c-0.1-0.2-0.2-0.4-0.2-0.6c0,0,0,0,0,0l0,0
	c-0.1-0.3-0.2-0.6-0.3-0.9c0,0,0-0.1,0-0.1c-0.1-0.3-0.2-0.6-0.3-0.9c-0.2-0.9-0.4-1.8-0.6-2.7c-0.1-0.4-0.1-0.9-0.2-1.3
	c-0.1-1.3-0.1-2.6,0-3.8c0.1-0.5,0.1-0.9,0.2-1.4c0.2-0.9,0.5-1.7,0.9-2.5l7.2-13.1l0-0.1l0.7-1.3l0.3-0.6l4.5-8.7l13.1-24.3
	c3.2-5.8,10.3-1.4,12.9,8l3.7,13.5c1,3.8,1,7.5-0.1,10.1c-0.1,0.2-0.2,0.4-0.3,0.6l-3.9,8.2l-5.1,10.7
	C956.8,200.6,956.8,200.8,956.8,200.9z"/>
<path class="st1" d="M541.5,197h-33.2c0,1.5-0.1,3-0.1,4.5c0,1.1-0.3,2-0.8,2.7c0.4,1.3,0.7,2.6,1,3.9c0.2,1,0.4,1.9,0.6,2.9h41.5
	c0.5-1.3,0.8-2.7,0.8-4.2C551.3,201.4,546.9,197,541.5,197z"/>
<path class="st2" d="M707.3,143.5c0,26.1-15.1,48.6-36.8,58.3c-7.4,3.4-15.6,5.2-24.2,5.2c-8.6,0-16.8-1.9-24.2-5.2
	c-21.7-9.7-36.8-32.2-36.8-58.3c0-35.1,27.3-63.5,61-63.5C680,80,707.3,108.4,707.3,143.5z"/>
<ellipse class="st3" cx="633.8" cy="139" rx="26.5" ry="26"/>
<circle class="st1" cx="630.3" cy="139" r="9"/>
<circle class="st1" cx="645.8" cy="148.5" r="4.5"/>
<path class="st4" d="M915.3,7.6V39c0,23.6-17.1,43.2-39.5,47.2C837.4,64.3,787.8,51,733.6,51c-41.4,0-80.2,7.8-113.3,21.3v-31
	c0-22.8,18.5-41.3,41.3-41.3h246.2C911.9,0,915.3,3.4,915.3,7.6z"/>
<path class="st5" d="M789.3,340h-4c-17,0-31-14-31-31c0-8.5,3.5-16.3,9.1-21.9c5.6-5.6,13.4-9.1,21.9-9.1h4
	c-8.5,0-16.3,3.5-21.9,9.1c-5.6,5.6-9.1,13.4-9.1,21.9C758.3,326.1,772.2,340,789.3,340z"/>
<path class="st6" d="M949.4,229L949.4,229c-5.2,18.1-15.3,35-29.3,50c-0.6,0.6-1.2,1.2-1.8,1.9c-0.1,0.1-0.2,0.3-0.4,0.4
	c-0.5,0.5-0.9,1-1.4,1.5c-4.8-3-10.4-4.7-16.3-4.7h-115c-8.5,0-16.3,3.5-21.9,9.1c-5.6,5.6-9.1,13.4-9.1,21.9c0,17,14,31,31,31H809
	c-23.5,5.8-48.9,9-75.4,9c-107.2,0-196.5-51.9-216-120.7c-1.3-4.6,2.2-9.3,7-9.3h15.8c0.5,0,0.9-0.1,1.3-0.3h0
	c4.1-0.9,7.4-3.9,8.8-7.7h76.7c7.2,3.2,15.2,5,23.6,5s16.4-1.8,23.6-5h253.5c0,0,0,0.1,0,0.1c0,0.3,0.1,0.6,0.1,0.9v0c0,0,0,0,0,0
	c0,0.2,0.1,0.4,0.1,0.5c0,0.2,0.1,0.4,0.1,0.6c0.1,0.5,0.3,0.9,0.5,1.4c0.1,0.2,0.1,0.3,0.2,0.5c0.1,0.2,0.2,0.4,0.3,0.5
	c0.1,0.1,0.1,0.3,0.2,0.4c0.1,0.2,0.2,0.3,0.3,0.5c0.1,0.2,0.2,0.3,0.4,0.5c0.4,0.5,0.8,1,1.3,1.4c0.1,0.1,0.3,0.2,0.4,0.4
	c0.5,0.4,1.1,0.8,1.7,1.2l15.7,8.9L949.4,229z"/>
<path class="st6" d="M650.8,216c-8.4,0-16.4-1.8-23.6-5h47.2C667.2,214.2,659.2,216,650.8,216z"/>
<path class="st1" d="M509,211c0.5,2.6,0.9,5.3,0.9,8h29.1c0.9,0,1.8-0.1,2.6-0.3h0c1.1-0.5,1.9-1.6,1.9-3V211H509z"/>
<path class="st6" d="M539.1,219c0.9,0,1.8-0.1,2.6-0.3c-0.4,0.2-0.9,0.3-1.3,0.3H539.1z"/>
<path class="st1" d="M550.5,211c-1.4,3.8-4.7,6.8-8.8,7.7c1.1-0.5,1.9-1.6,1.9-3V211H550.5z"/>
<path class="st4" d="M916.6,282.7c-25.8,26.1-63.3,46.4-107.6,57.3h-19.8c-17,0-31-14-31-31c0-8.5,3.5-16.3,9.1-21.9
	c5.6-5.6,13.4-9.1,21.9-9.1h111C906.3,278,911.9,279.7,916.6,282.7z"/>
<path class="st4" d="M931.3,309c0,8.5-3.5,16.3-9.1,21.9c-5.6,5.6-13.4,9.1-21.9,9.1H809c44.2-10.9,81.8-31.2,107.6-57.3
	C925.4,288.2,931.3,298,931.3,309z"/>
<path class="st4" d="M918.3,309c0,8.5-1.8,16.3-4.7,21.9c-2.9,5.6-6.9,9.1-11.3,9.1h-2.1c4.4,0,8.4-3.5,11.3-9.1
	c2.9-5.6,4.7-13.4,4.7-21.9c0-11.1-3-20.8-7.5-26.3c-2.4-3-5.3-4.7-8.4-4.7h2.1c2.5,0,4.9,1.2,7.1,3.2c0.5,0.4,0.9,0.9,1.3,1.5
	C915.3,288.2,918.3,298,918.3,309z"/>
<ellipse class="st7" cx="855.3" cy="115.5" rx="10" ry="10.5"/>
<circle class="st8" cx="831.3" cy="130" r="13"/>
<circle class="st8" cx="857.3" cy="137" r="5"/>
<circle class="st8" cx="622.3" cy="283" r="13"/>
<ellipse class="st7" cx="649.3" cy="286.5" rx="10" ry="10.5"/>
<circle class="st8" cx="640.3" cy="305" r="5"/>
<path class="st0" d="M369.7,86.3C331.4,64.3,281.8,51,227.6,51c-41.4,0-80.2,7.8-113.3,21.3C54.3,96.7,13,139.9,8.1,189.9
	c-0.4,3.8,2.7,7.1,6.5,7.1h21c5.4,0,9.8,4.4,9.8,9.8c0,1.5-0.3,2.9-0.8,4.2h76.7c-0.6-0.3-1.2-0.5-1.8-0.8c-0.1,0-0.2-0.1-0.3-0.1
	c-0.6-0.3-1.2-0.6-1.8-0.9c-0.6-0.3-1.1-0.6-1.7-0.9c-0.6-0.3-1.2-0.7-1.8-1.1c-0.2-0.1-0.4-0.3-0.6-0.4c-0.5-0.3-1-0.6-1.5-1
	c-0.4-0.3-0.9-0.6-1.3-0.9c-0.2-0.2-0.5-0.3-0.7-0.5c-0.5-0.4-1-0.8-1.5-1.1c-0.6-0.5-1.2-1-1.8-1.5c-0.4-0.3-0.7-0.6-1-0.9
	c-0.3-0.2-0.5-0.5-0.8-0.7c-0.3-0.3-0.6-0.6-0.9-0.9c-0.9-0.9-1.8-1.8-2.7-2.8c-0.2-0.2-0.4-0.5-0.6-0.7c-0.3-0.4-0.6-0.7-0.9-1.1
	c-0.3-0.3-0.5-0.7-0.8-1c-0.7-0.8-1.3-1.7-1.9-2.6c-0.2-0.2-0.3-0.5-0.5-0.7c-0.1-0.1-0.2-0.2-0.2-0.4c-1-1.4-1.9-2.9-2.8-4.5
	c-0.2-0.4-0.4-0.8-0.7-1.2c0,0,0-0.1,0-0.1c-0.2-0.4-0.4-0.8-0.6-1.1c-0.2-0.4-0.4-0.8-0.6-1.2c-0.2-0.4-0.4-0.8-0.6-1.2
	c0,0,0,0,0,0c-0.2-0.5-0.4-1-0.6-1.5c-0.2-0.5-0.4-1-0.6-1.5c-0.2-0.5-0.4-0.9-0.5-1.4c-0.1-0.3-0.2-0.7-0.4-1
	c-0.1-0.3-0.2-0.7-0.3-1c-0.1-0.4-0.2-0.7-0.3-1.1c-0.2-0.5-0.3-1-0.4-1.5c-0.3-1-0.5-1.9-0.7-2.9c-0.1-0.3-0.1-0.6-0.2-0.9
	c-0.5-2.2-0.8-4.5-1-6.9c0-0.3-0.1-0.7-0.1-1c0-0.6-0.1-1.2-0.1-1.8c0-0.3,0-0.7,0-1c0-0.6,0-1.3,0-1.9c0-33.7,26.6-61,59.5-61
	c0.5,0,1,0,1.5,0c1,0,2.1,0.1,3.1,0.2c0.5,0,0.9,0.1,1.3,0.1c0.9,0.1,1.7,0.2,2.6,0.3c0.3,0,0.6,0.1,0.9,0.1
	c0.4,0.1,0.8,0.1,1.1,0.2c0.5,0.1,0.9,0.2,1.4,0.3c0.3,0.1,0.6,0.1,0.8,0.2c0.4,0.1,0.7,0.2,1.1,0.2c0,0,0.1,0,0.1,0
	c0.3,0.1,0.7,0.2,1,0.3c0.7,0.2,1.5,0.4,2.2,0.6c0.3,0.1,0.6,0.2,0.9,0.3c2.2,0.7,4.4,1.6,6.5,2.6c0.4,0.2,0.8,0.4,1.1,0.6
	c0.4,0.2,0.9,0.4,1.3,0.7c0.4,0.2,0.8,0.4,1.1,0.6c1.8,1,3.5,2.1,5.2,3.2c0.4,0.2,0.7,0.5,1,0.7c0.5,0.3,0.9,0.7,1.4,1
	c0.2,0.2,0.4,0.3,0.6,0.5c0.9,0.7,1.8,1.5,2.6,2.2c0.3,0.2,0.5,0.5,0.8,0.7c0.4,0.4,0.8,0.7,1.2,1.1c0.2,0.2,0.5,0.4,0.7,0.7
	c0.2,0.2,0.4,0.4,0.6,0.6c0.2,0.2,0.5,0.5,0.7,0.8c0.5,0.5,0.9,1,1.4,1.5c0.4,0.4,0.7,0.8,1,1.2c0.2,0.2,0.3,0.4,0.5,0.6
	c0.4,0.5,0.8,1,1.2,1.5c0,0.1,0.1,0.1,0.1,0.2c0.3,0.4,0.7,0.9,1,1.3c0.2,0.2,0.3,0.5,0.5,0.7c0.4,0.5,0.7,1,1.1,1.6
	c0.4,0.6,0.8,1.2,1.1,1.8c0.1,0.1,0.1,0.2,0.1,0.3c0.4,0.6,0.7,1.2,1,1.8c0.3,0.6,0.7,1.2,1,1.8c0.1,0.1,0.1,0.2,0.2,0.4
	c0.3,0.5,0.5,1.1,0.8,1.6c0.4,0.9,0.8,1.7,1.1,2.6c0.3,0.6,0.5,1.3,0.7,1.9c0,0,0,0,0,0c0.1,0.2,0.1,0.4,0.2,0.6
	c0.1,0.4,0.3,0.8,0.4,1.1c0.2,0.5,0.3,0.9,0.4,1.4c0.2,0.7,0.4,1.4,0.6,2.1c0.1,0.4,0.2,0.8,0.3,1.2c0.3,1.3,0.6,2.6,0.8,4
	c0.1,0.4,0.2,0.9,0.2,1.3c0,0.2,0.1,0.4,0.1,0.7c0,0.3,0.1,0.7,0.1,1.1c0.1,0.6,0.2,1.2,0.2,1.8c0,0.3,0.1,0.6,0.1,0.9
	c0,0.3,0.1,0.7,0.1,1c0,0.3,0,0.7,0.1,1c0,0.3,0,0.7,0,1c0,0.7,0,1.4,0,2.1c0,25.1-14.8,46.6-35.9,56h253.4c0-0.3,0-0.5,0-0.8
	c0-0.8,0.1-1.6,0.3-2.4c0.1-0.4,0.2-0.8,0.3-1.1c0.4-1.1,0.9-2.2,1.7-3.2c0.3-0.4,0.6-0.8,1-1.1c0.7-0.7,1.5-1.3,2.5-1.9l16.9-9.4
	l0.1-0.1l2.5-1.4C442.8,148.2,413.7,111.5,369.7,86.3z M252.3,309c0-8.5,3.5-16.3,9.1-21.9c5.6-5.6,13.4-9.1,21.9-9.1h-4
	c-8.5,0-16.3,3.5-21.9,9.1c-5.6,5.6-9.1,13.4-9.1,21.9c0,17,13.9,31,31,31h4C266.2,340,252.3,326.1,252.3,309z"/>
<path class="st0" d="M45.3,206.8c0,1.5-0.3,2.9-0.8,4.2h-6.9v-10.8c0-1.8-1.5-3.2-3.2-3.2h1.1C40.9,197,45.3,201.4,45.3,206.8z"/>
<path class="st0" d="M204.3,155c0,25.1-14.8,46.6-35.9,56c-7.2,3.2-15.2,5-23.6,5s-16.4-1.8-23.6-5c-21.1-9.4-35.9-30.9-35.9-56
	c0-33.7,26.6-61,59.5-61S204.3,121.3,204.3,155z"/>
<path class="st0" d="M427.8,219.9l15.7,8.9c0,0,0,0.1,0,0.1l-0.3-0.1l-15.7-8.9c-0.6-0.3-1.2-0.7-1.7-1.2c-0.2-0.1-0.3-0.2-0.4-0.4
	c-0.5-0.4-0.9-0.9-1.3-1.4c-0.1-0.2-0.2-0.3-0.4-0.5c-0.1-0.2-0.2-0.3-0.3-0.5c-0.1-0.1-0.2-0.3-0.2-0.4c-0.1-0.2-0.2-0.4-0.3-0.5
	c-0.1-0.2-0.2-0.3-0.2-0.5c-0.2-0.4-0.3-0.9-0.5-1.4c0-0.2-0.1-0.4-0.1-0.6c0-0.2-0.1-0.4-0.1-0.5c0,0,0,0,0,0v0
	c0-0.3-0.1-0.6-0.1-0.9c0,0,0-0.1,0-0.1c0-0.3,0-0.5,0-0.8c0-0.8,0.1-1.6,0.3-2.4c0.1-0.4,0.2-0.8,0.3-1.1c0.4-1.1,0.9-2.2,1.7-3.2
	c0.3-0.4,0.6-0.8,1-1.1c0.7-0.7,1.5-1.3,2.5-1.9l16.9-9.4l-16.6,9.4c-1,0.5-1.8,1.2-2.5,1.9c-0.4,0.4-0.7,0.7-1,1.1
	c-0.7,1-1.3,2.1-1.7,3.2c-0.1,0.4-0.2,0.8-0.3,1.1c-0.2,0.8-0.3,1.6-0.3,2.4c0,0.3,0,0.5,0,0.8c0,0,0,0.1,0,0.1
	c0,0.3,0.1,0.6,0.1,0.9v0c0,0,0,0,0,0c0,0.2,0.1,0.4,0.1,0.5c0,0.2,0.1,0.4,0.1,0.6c0.1,0.5,0.3,0.9,0.5,1.4
	c0.1,0.2,0.1,0.3,0.2,0.5c0.1,0.2,0.2,0.4,0.3,0.5c0.1,0.1,0.1,0.3,0.2,0.4c0.1,0.2,0.2,0.3,0.3,0.5c0.1,0.2,0.2,0.3,0.4,0.5
	c0.4,0.5,0.8,1,1.3,1.4c0.1,0.1,0.3,0.2,0.4,0.4C426.6,219.2,427.2,219.6,427.8,219.9z"/>
<path class="st0" d="M477.6,211c-0.3,0.3-0.4,0.6-0.4,1c0,0.6,0.2,1.2,0.8,1.5l12.7,7.9l10.2,6.5c3,1.9,4.8,5.2,4.8,8.7v8.4
	c0,8.6-9.3,14-16.7,9.7l-30.9-17.5l-14.5-8.2v0l-0.3-0.1l-15.7-8.9c-0.6-0.3-1.2-0.7-1.7-1.2c-0.2-0.1-0.3-0.2-0.4-0.4
	c-0.5-0.4-0.9-0.9-1.3-1.4c-0.1-0.2-0.2-0.3-0.4-0.5c-0.1-0.2-0.2-0.3-0.3-0.5c-0.1-0.1-0.2-0.3-0.2-0.4c-0.1-0.2-0.2-0.4-0.3-0.5
	c-0.1-0.2-0.2-0.3-0.2-0.5c-0.2-0.4-0.3-0.9-0.5-1.4c0-0.2-0.1-0.4-0.1-0.6c0-0.2-0.1-0.4-0.1-0.5c0,0,0,0,0,0v0
	c0-0.3-0.1-0.6-0.1-0.9c0,0,0-0.1,0-0.1c0-0.3,0-0.5,0-0.8c0-0.8,0.1-1.6,0.3-2.4c0.1-0.4,0.2-0.8,0.3-1.1c0.4-1.1,0.9-2.2,1.7-3.2
	c0.3-0.4,0.6-0.8,1-1.1c0.7-0.7,1.5-1.3,2.5-1.9l16.9-9.4l0.1-0.1l1.7-1l0.8-0.5l10.9-6.3l31-17.5c7.5-4.2,16.7,1.2,16.7,9.8l0,12.3
	c0,3.4-1.7,6.6-4.5,8.5c-0.2,0.1-0.5,0.3-0.7,0.5l-9.7,6l-12.7,7.9C477.8,210.8,477.7,210.9,477.6,211z"/>
<path class="st9" d="M505.6,236.6v8.4c0,8.6-9.3,14-16.7,9.7l-30.9-17.5l-14.5-8.2v0l-0.3-0.1l-15.7-8.9c-0.6-0.3-1.2-0.7-1.7-1.2
	c-0.2-0.1-0.3-0.2-0.4-0.4c-0.5-0.4-0.9-0.9-1.3-1.4c-0.1-0.2-0.2-0.3-0.4-0.5c-0.1-0.2-0.2-0.3-0.3-0.5c-0.1-0.1-0.2-0.3-0.2-0.4
	c-0.1-0.2-0.2-0.4-0.3-0.5c-0.1-0.2-0.2-0.3-0.2-0.5c-0.2-0.4-0.3-0.9-0.5-1.4c0-0.2-0.1-0.4-0.1-0.6c0-0.2-0.1-0.4-0.1-0.5
	c0,0,0,0,0,0h55.2c0,0.6,0.2,1.2,0.8,1.5l12.7,7.9l10.2,6.5C503.8,229.8,505.6,233.1,505.6,236.6z"/>
<path class="st1" d="M35.5,197H2.3c0,1.5-0.1,3-0.1,4.5c0,1.1-0.3,2-0.8,2.7c0.4,1.3,0.7,2.6,1,3.9c0.2,1,0.4,1.9,0.6,2.9h41.5
	c0.5-1.3,0.8-2.7,0.8-4.2C45.3,201.4,40.9,197,35.5,197z"/>
<path class="st2" d="M201.3,143.5c0,26.1-15.1,48.6-36.8,58.3c-7.4,3.4-15.6,5.2-24.2,5.2c-8.6,0-16.8-1.9-24.2-5.2
	c-21.7-9.7-36.8-32.2-36.8-58.3c0-35.1,27.3-63.5,61-63.5S201.3,108.4,201.3,143.5z"/>
<ellipse class="st3" cx="127.8" cy="139" rx="26.5" ry="26"/>
<circle class="st1" cx="124.3" cy="139" r="9"/>
<circle class="st1" cx="139.8" cy="148.5" r="4.5"/>
<path class="st4" d="M409.3,7.6V39c0,23.6-17.1,43.2-39.5,47.2C331.4,64.3,281.8,51,227.6,51c-41.4,0-80.2,7.8-113.3,21.3v-31
	c0-22.8,18.5-41.3,41.3-41.3h246.2C405.9,0,409.3,3.4,409.3,7.6z"/>
<path class="st5" d="M283.3,340h-4c-17,0-31-14-31-31c0-8.5,3.5-16.3,9.1-21.9c5.6-5.6,13.4-9.1,21.9-9.1h4
	c-8.5,0-16.3,3.5-21.9,9.1c-5.6,5.6-9.1,13.4-9.1,21.9C252.3,326.1,266.2,340,283.3,340z"/>
<path class="st6" d="M443.4,229L443.4,229c-5.2,18.1-15.3,35-29.3,50c-0.6,0.6-1.2,1.2-1.8,1.9c-0.1,0.1-0.2,0.3-0.4,0.4
	c-0.5,0.5-0.9,1-1.4,1.5c-4.8-3-10.4-4.7-16.3-4.7h-115c-8.5,0-16.3,3.5-21.9,9.1c-5.6,5.6-9.1,13.4-9.1,21.9c0,17,13.9,31,31,31
	H303c-23.5,5.8-48.9,9-75.4,9c-107.2,0-196.5-51.9-216-120.7c-1.3-4.6,2.2-9.3,7-9.3h15.8c0.5,0,0.9-0.1,1.3-0.3h0
	c4.1-0.9,7.4-3.9,8.8-7.7h76.7c7.2,3.2,15.2,5,23.6,5s16.4-1.8,23.6-5h253.4c0,0,0,0.1,0,0.1c0,0.3,0.1,0.6,0.1,0.9v0c0,0,0,0,0,0
	c0,0.2,0.1,0.4,0.1,0.5c0,0.2,0.1,0.4,0.1,0.6c0.1,0.5,0.3,0.9,0.5,1.4c0.1,0.2,0.1,0.3,0.2,0.5c0.1,0.2,0.2,0.4,0.3,0.5
	c0.1,0.1,0.1,0.3,0.2,0.4c0.1,0.2,0.2,0.3,0.3,0.5c0.1,0.2,0.2,0.3,0.4,0.5c0.4,0.5,0.8,1,1.3,1.4c0.1,0.1,0.3,0.2,0.4,0.4
	c0.5,0.4,1.1,0.8,1.7,1.2l15.7,8.9L443.4,229z"/>
<path class="st6" d="M144.8,216c-8.4,0-16.4-1.8-23.6-5h47.2C161.2,214.2,153.2,216,144.8,216z"/>
<path class="st1" d="M3,211c0.5,2.6,0.9,5.3,0.9,8h29.1c0.9,0,1.8-0.1,2.6-0.3h0c1.1-0.5,1.9-1.6,1.9-3V211H3z"/>
<path class="st6" d="M33.1,219c0.9,0,1.8-0.1,2.6-0.3c-0.4,0.2-0.9,0.3-1.3,0.3H33.1z"/>
<path class="st1" d="M44.5,211c-1.4,3.8-4.7,6.8-8.8,7.7c1.1-0.5,1.9-1.6,1.9-3V211H44.5z"/>
<path class="st4" d="M410.6,282.7c-25.8,26.1-63.3,46.4-107.6,57.3h-19.8c-17,0-31-14-31-31c0-8.5,3.5-16.3,9.1-21.9
	c5.6-5.6,13.4-9.1,21.9-9.1h111C400.3,278,405.9,279.7,410.6,282.7z"/>
<path class="st4" d="M425.3,309c0,8.5-3.5,16.3-9.1,21.9c-5.6,5.6-13.4,9.1-21.9,9.1H303c44.2-10.9,81.8-31.2,107.6-57.3
	C419.4,288.2,425.3,298,425.3,309z"/>
<path class="st4" d="M412.3,309c0,8.5-1.8,16.3-4.7,21.9c-2.9,5.6-6.9,9.1-11.3,9.1h-2.1c4.4,0,8.4-3.5,11.3-9.1
	c2.9-5.6,4.7-13.4,4.7-21.9c0-11.1-3-20.8-7.5-26.3c-2.4-3-5.3-4.7-8.4-4.7h2.1c2.5,0,4.9,1.2,7.1,3.2c0.5,0.4,0.9,0.9,1.3,1.5
	C409.3,288.2,412.3,298,412.3,309z"/>
<path class="st6" d="M505.6,236.6v8.4c0,8.6-9.3,14-16.7,9.7l-30.9-17.5l-14.5-8.2v0l-0.3-0.1l-15.7-8.9c-0.6-0.3-1.2-0.7-1.7-1.2
	c-0.2-0.1-0.3-0.2-0.4-0.4c-0.5-0.4-0.9-0.9-1.3-1.4c-0.1-0.2-0.2-0.3-0.4-0.5c-0.1-0.2-0.2-0.3-0.3-0.5c-0.1-0.1-0.2-0.3-0.2-0.4
	c-0.1-0.2-0.2-0.4-0.3-0.5c-0.1-0.2-0.2-0.3-0.2-0.5c-0.2-0.4-0.3-0.9-0.5-1.4c0-0.2-0.1-0.4-0.1-0.6c0-0.2-0.1-0.4-0.1-0.5
	c0,0,0,0,0,0v0c0-0.3-0.1-0.6-0.1-0.9c0,0,0-0.1,0-0.1h55.7c-0.3,0.3-0.4,0.6-0.4,1c0,0.6,0.2,1.2,0.8,1.5l12.7,7.9l10.2,6.5
	C503.8,229.8,505.6,233.1,505.6,236.6z"/>
<ellipse class="st7" cx="349.3" cy="115.5" rx="10" ry="10.5"/>
<circle class="st8" cx="325.3" cy="130" r="13"/>
<circle class="st8" cx="351.3" cy="137" r="5"/>
<circle class="st8" cx="116.3" cy="283" r="13"/>
<ellipse class="st7" cx="143.3" cy="286.5" rx="10" ry="10.5"/>
<circle class="st8" cx="134.3" cy="305" r="5"/>
</svg>
