<?xml version="1.0" encoding="utf-8"?>
<!-- Generator: Adobe Illustrator 22.0.1, SVG Export Plug-In . SVG Version: 6.00 Build 0)  -->
<svg version="1.1" id="Layer_1" xmlns="http://www.w3.org/2000/svg" xmlns:xlink="http://www.w3.org/1999/xlink" x="0px" y="0px"
	 viewBox="0 0 443.6 416.2" style="enable-background:new 0 0 443.6 416.2;" xml:space="preserve">
<style type="text/css">
	.st0{fill:#C9A1BF;}
	.st1{fill:#050404;}
</style>
<g>
	<ellipse class="st0" cx="223.8" cy="212.3" rx="218" ry="208"/>
</g>
<g>
	<rect x="194.3" y="105.8" class="st1" width="60" height="106"/>
	<path d="M253.8,106.3v105h-59v-105H253.8 M254.8,105.3h-61v107h61V105.3L254.8,105.3z"/>
</g>
<g>
	<polygon class="st1" points="146.9,213.8 300.8,212.6 224.8,346.3 	"/>
	<path d="M299.9,213.1l-37.6,66.1l-37.6,66.1l-38.5-65.5l-38.5-65.5l76-0.6L299.9,213.1 M301.6,212.1l-77.8,0.6l-77.8,0.6l39.3,67
		l39.3,67l38.4-67.6L301.6,212.1L301.6,212.1z"/>
</g>
</svg>
