<?xml version="1.0" encoding="utf-8"?>
<!-- Generator: Adobe Illustrator 22.0.1, SVG Export Plug-In . SVG Version: 6.00 Build 0)  -->
<svg version="1.1" id="Layer_1" xmlns="http://www.w3.org/2000/svg" xmlns:xlink="http://www.w3.org/1999/xlink" x="0px" y="0px"
	 viewBox="0 0 893.8 585.1" style="enable-background:new 0 0 893.8 585.1;" xml:space="preserve">
<style type="text/css">
	.st0{fill:#E2D829;}
	.st1{fill:#FFFFFF;}
	.st2{fill:#666666;}
	.st3{fill:#ED1C24;}
	.st4{fill:#96938F;}
	.st5{fill:#4C4A48;}
	.st6{fill:#2E6FAA;}
	.st7{fill:#60605D;}
	.st8{fill:#C1272D;}
	.st9{fill:#5E5E58;}
	.st10{fill:#F7931E;}
	.st11{fill:#FFFF00;}
	.st12{fill:#FFFFFF;stroke:#AB0000;stroke-width:20;stroke-miterlimit:10;}
</style>
<g>
	<path class="st0" d="M762.6,373.3c0-0.4,0-0.7,0-1.1c0-0.8,0-1.6-0.1-2.4c0-0.8-0.1-1.6-0.1-2.4v0c0-0.1,0-0.2,0-0.3
		c0-0.2,0-0.3,0-0.5c0-0.4,0-0.7-0.1-1.1c-0.1-1.2-0.2-2.3-0.3-3.5c0-0.2,0-0.4-0.1-0.6c-0.2-2-0.5-4.1-0.9-6.1
		c-0.1-0.7-0.2-1.5-0.4-2.2c0-0.1,0-0.2,0-0.2c0-0.1,0-0.1,0-0.2c0-0.1,0-0.1,0-0.2c-0.5-2.4-1-4.8-1.6-7.1
		c-5.5-21.5-17.1-41.9-33.7-60.7l1,29.1c0.6,17.9-18.7,29.5-34.2,20.5l-54.4-31.5l-54.4-31.5c-15.5-9-15.1-31.5,0.8-39.8l35.8-19
		c-26.4-11.5-55.7-21.1-87.2-28.5v65.2c0,6.6-5.4,12-12,12h-31.8c18.5,9.9,31.7,28,34.3,49.3c12.9-7.1,28.5-10.1,44.4-7.4
		c32.6,5.5,55.7,33,56,64.1h60v9c0,6.6,5.4,12,12,12h66.1c0.6-4.6,0.9-9.3,0.9-14C762.6,374.1,762.6,373.7,762.6,373.3z
		 M219.6,249.4v-62C94.9,219.7,7.7,287.9,2.8,367.4h134.8c0-35.9,30-65,67-65s67,29.1,67,65h44c0-35.9,30-65,67-65
		c3,0,6,0.2,8.9,0.6c4.5-17.9,16.6-32.9,32.9-41.6H231.6C225,261.4,219.6,256,219.6,249.4z"/>
</g>
<path class="st0" d="M532.6,185.1v64.3c0,6.6-5.4,12-12,12h-31.8c-9.6-5.1-20.5-8-32.2-8s-22.7,2.9-32.2,8H231.6
	c-6.6,0-12-5.4-12-12v-62c49.4-9,104.7-14,163-14C435.9,173.4,486.6,177.6,532.6,185.1z"/>
<path class="st1" d="M488.8,261.4h-64.4c9.6-5.1,20.5-8,32.2-8S479.3,256.3,488.8,261.4z"/>
<path class="st0" d="M532.6,184.2v1c-46-7.5-96.7-11.7-150-11.7c-58.3,0-113.6,5-163,14c49.4-12.8,104.7-20,163-20
	C435.9,167.4,486.6,173.4,532.6,184.2z"/>
<path class="st2" d="M532.6,113.8v70.3c-46-10.8-96.7-16.8-150-16.8c-58.3,0-113.6,7.2-163,20v-73.5c0-4.6,5.4-8.4,12-8.4h289
	C527.2,105.4,532.6,109.2,532.6,113.8z"/>
<path class="st3" d="M729.2,288.7c-24.9-28.1-61.1-52.7-105.4-72l14.4-7.6l54.4-28.8c14.9-7.9,32.8,2.5,33.4,19.3l2.2,61.5
	L729.2,288.7z"/>
<path class="st0" d="M692,334.4l-54.4-31.5l-54.4-31.5c-15.5-9-15.1-31.5,0.8-39.8l35.8-19c44.3,19.3,80.5,43.9,105.4,72l1,29.1
	C726.8,331.7,707.5,343.3,692,334.4z"/>
<path class="st3" d="M695.7,565.3l-56-32.4l-6.5-3.8l-2-1.2c26.3-12.2,49.5-26.3,68.8-42c9.4-7.6,17.9-15.5,25.4-23.8l0.9,24.9
	l2.1,58.6C728.9,562.8,710.5,573.9,695.7,565.3z"/>
<path class="st0" d="M719.3,467.2c-5.9,6.5-12.3,12.7-19.4,18.8c-18.6,16-41.1,30.5-66.8,43.1c-2.6,1.3-5.3,2.6-8,3.8L580.2,507
	c-15.9-9.2-15.5-32.4,0.8-41l49.1-26l53.5-28.3c15.3-8.1,33.7,2.6,34.3,19.9L719.3,467.2z"/>
<rect x="363.6" y="38.4" class="st4" width="25" height="67"/>
<path class="st5" d="M388.5,38.4h-55.9c0,0-0.1,0-0.1-0.1V5.5c0,0,0-0.1,0.1-0.1h46.8c5,0,9.1,4.1,9.1,9.1L388.5,38.4
	C388.6,38.4,388.6,38.4,388.5,38.4z"/>
<path class="st6" d="M322.1,0.2h6.3c2.3,0,4.2,1.9,4.2,4.2v35.9c0,2.3-1.9,4.2-4.2,4.2h-6.3c-2.3,0-4.2-1.9-4.2-4.2V4.3
	C318,2,319.8,0.2,322.1,0.2z"/>
<path class="st7" d="M825.8,367.9c0,7.7,2.6,14.8,7,20.5H809c-2.6-3.9-5.6-6-8.7-6s-6.1,2.1-8.7,6H762c0.6-4.6,0.9-9.3,0.9-14
	c0-0.4,0-0.7,0-1.1c0-0.4,0-0.7,0-1.1c0-0.8,0-1.6-0.1-2.4c0-0.3,0-0.6,0-0.9c0-0.5,0-1-0.1-1.6v0c0-0.1,0-0.2,0-0.3
	c0,0,0-0.1,0-0.1c0,0,0-0.1,0-0.1c0-0.1,0-0.2,0-0.3c0-0.4,0-0.7-0.1-1.1c0-0.1,0-0.3,0-0.4c0-0.1,0-0.2,0-0.3c0-0.1,0-0.2,0-0.3
	c-0.1-0.8-0.2-1.7-0.2-2.5c0-0.2,0-0.4-0.1-0.6c-0.2-1.5-0.4-3.1-0.6-4.6c-0.1-0.5-0.2-1-0.2-1.5c-0.1-0.7-0.2-1.5-0.4-2.2
	c0-0.1,0-0.2,0-0.2c0,0,0-0.1,0-0.1c0-0.1,0-0.2,0-0.2c-0.2-1.2-0.5-2.4-0.8-3.6c-0.1-0.4-0.2-0.8-0.3-1.2c0-0.2-0.1-0.3-0.1-0.5
	c0,0,0-0.1,0-0.1c-0.1-0.6-0.3-1.2-0.4-1.8h35c2,2,4.1,3,6.2,3s4.3-1,6.2-3h27.9C829.1,351.4,825.8,359.3,825.8,367.9z"/>
<path class="st0" d="M762.6,374.4c0,4.7-0.3,9.4-0.9,14h-66.1c-6.6,0-12-5.4-12-12v-19c0-6.6,5.4-12,12-12h63.3
	c0.6,2.4,1.2,4.8,1.6,7.1c0,0.1,0,0.1,0,0.2v0c0,0,0,0.1,0,0.1c0,0.1,0,0.2,0,0.2c0.1,0.7,0.3,1.5,0.4,2.2c0.3,2,0.6,4.1,0.9,6.1
	c0,0.2,0,0.4,0.1,0.6c0.1,1.1,0.2,2.3,0.3,3.5c0,0.4,0.1,0.7,0.1,1.1c0,0.2,0,0.3,0,0.5c0,0.1,0,0.2,0,0.3v0
	c0.1,0.8,0.1,1.6,0.1,2.4c0,0.8,0.1,1.6,0.1,2.4c0,0.4,0,0.7,0,1.1C762.6,373.7,762.6,374.1,762.6,374.4z"/>
<path class="st0" d="M858.6,357.4v19c0,6.6-5.4,12-12,12h-14c-4.4-5.7-7-12.8-7-20.5c0-8.7,3.3-16.5,8.7-22.5h12.3
	C853.2,345.4,858.6,350.8,858.6,357.4z"/>
<path class="st8" d="M892.6,367.9c0,18.5-15,33.5-33.5,33.5c-10.8,0-20.4-5.1-26.5-13c-4.4-5.7-7-12.8-7-20.5
	c0-8.7,3.3-16.5,8.7-22.5c6.1-6.8,15-11,24.8-11C877.6,334.4,892.6,349.4,892.6,367.9z"/>
<path class="st9" d="M820.6,287.9c0,28.3-6,52.3-14.3,60.5h-12.5c-8.3-8.2-14.3-32.2-14.3-60.5c0-35.1,9.2-63.5,20.5-63.5
	C811.4,224.4,820.6,252.8,820.6,287.9z"/>
<path class="st9" d="M806.3,345.4c-2,2-4.1,3-6.2,3s-4.3-1-6.2-3H806.3z"/>
<path class="st9" d="M820.6,445.9c0,35.1-9.2,63.5-20.5,63.5c-11.3,0-20.5-28.4-20.5-63.5c0-25.4,4.8-47.4,11.8-57.5h17.4
	C815.8,398.6,820.6,420.5,820.6,445.9z"/>
<path class="st9" d="M808.8,388.4h-17.4c2.7-3.9,5.6-6,8.7-6S806.2,384.6,808.8,388.4z"/>
<path class="st10" d="M623.5,367.4c0,3.7-0.2,7.5-0.9,11.3c-6,35.4-40.5,59-77,52.8c-30-5.1-52-28.8-55.5-56.8
	c-9.9,5.5-21.3,8.7-33.5,8.7c-3,0-6-0.2-8.9-0.6c-7.1,28.5-33.6,49.6-65.1,49.6c-37,0-67-29.1-67-65H623.5z"/>
<path class="st10" d="M271.6,367.4c0,35.9-30,65-67,65s-67-29.1-67-65H271.6z"/>
<path class="st10" d="M761.7,388.4c-3.4,27.8-16.9,54.1-38.5,77.8l-1.3-35.6c-0.6-17.3-19.1-27.9-34.3-19.9l-53.5,28.3l-49.1,26
	c-16.3,8.6-16.7,31.8-0.8,41l44.8,25.9c-66.3,30.8-152.4,49.5-246.5,49.5c-209.9,0-380-92.7-380-207c0-2.3,0.1-4.7,0.2-7h134.8
	c0,35.9,30,65,67,65s67-29.1,67-65h44c0,35.9,30,65,67,65c31.5,0,58-21.1,65.1-49.6c2.9,0.4,5.9,0.6,8.9,0.6
	c12.2,0,23.7-3.2,33.5-8.7c3.5,28,25.5,51.7,55.5,56.8c36.5,6.2,70.9-17.4,77-52.8c0.7-3.8,0.9-7.6,0.9-11.3h60v9
	c0,6.6,5.4,12,12,12H761.7z"/>
<path class="st10" d="M723.3,466.2c-5.9,6.5-12.3,12.7-19.4,18.8c-18.6,16-41.1,30.5-66.8,43.1c-2.6,1.3-5.3,2.6-8,3.8L584.2,506
	c-15.9-9.2-15.5-32.4,0.8-41l49.1-26l53.5-28.3c15.3-8.1,33.7,2.6,34.3,19.9L723.3,466.2z"/>
<path class="st10" d="M762.6,367.4v21h-67c-6.6,0-12-5.4-12-12v-9H762.6z"/>
<path class="st11" d="M762.6,345.4v22H2.8c4.9-79.6,92.1-147.7,216.8-180c49.4-12.8,104.7-20,163-20c53.3,0,104,6,150,16.8
	c31.5,7.4,60.8,17,87.2,28.5c44.3,19.3,80.5,43.9,105.4,72c16.6,18.8,28.2,39.2,33.7,60.7H762.6z"/>
<path class="st12" d="M260.6,378.7c-6,35.4-40.5,59-77,52.8c-30-5.1-52-28.8-55.5-56.8c-0.8-6-0.7-12.3,0.4-18.5
	c3.4-19.9,15.8-36.2,32.6-45.4c12.9-7.1,28.5-10.1,44.4-7.4C242,309.6,266.7,343.3,260.6,378.7z"/>
<path class="st12" d="M448.6,378.7c-6,35.4-40.5,59-77,52.8c-30-5.1-52-28.8-55.5-56.8c-0.8-6-0.7-12.3,0.4-18.5
	c3.4-19.9,15.8-36.2,32.6-45.4c12.9-7.1,28.5-10.1,44.4-7.4C430,309.6,454.7,343.3,448.6,378.7z"/>
<path class="st12" d="M638.6,379.7c-6,35.4-40.5,59-77,52.8c-30-5.1-52-28.8-55.5-56.8c-0.8-6-0.7-12.3,0.4-18.5
	c3.4-19.9,15.8-36.2,32.6-45.4c12.9-7.1,28.5-10.1,44.4-7.4C620,310.6,644.7,344.3,638.6,379.7z"/>
</svg>
