<svg id="Lag_1" data-name="Lag 1" xmlns="http://www.w3.org/2000/svg" viewBox="0 0 2474 408"><defs><style>.cls-1{fill:#007aff;}.cls-2{fill:none;stroke:#000;stroke-miterlimit:10;}.cls-3,.cls-4{fill:#2f2f30;}.cls-4{font-size:12px;font-family:Helvetica, Helvetica;}</style></defs><title>Tegnebræt 1</title><rect class="cls-1" x="2240" y="35" width="188" height="331" rx="12" ry="12"/><path class="cls-1" d="M2427.5,349.5c0,5.82.73,15.66,5.69,15.66-.69,1.34-10.9,0-11.74-4.92-.78-4.58-1.52-8.29.05-10.74C2422.61,347.78,2427.49,347.45,2427.5,349.5Z"/><rect class="cls-1" x="40" y="330" width="188" height="36" rx="12" ry="12"/><path class="cls-1" d="M227.5,349.5c0,5.82.73,15.66,5.69,15.66-.69,1.34-10.9,0-11.74-4.92-.78-4.58-1.52-8.29.05-10.74C222.61,347.78,227.49,347.45,227.5,349.5Z"/><rect class="cls-1" x="315" y="300" width="188" height="66" rx="12" ry="12"/><path class="cls-1" d="M502.5,349.5c0,5.82.73,15.66,5.69,15.66-.69,1.34-10.9,0-11.74-4.92-.78-4.58-1.52-8.29.05-10.74C497.61,347.78,502.49,347.45,502.5,349.5Z"/><rect class="cls-1" x="590" y="255" width="188" height="111" rx="12" ry="12"/><path class="cls-1" d="M777.5,349.5c0,5.82.73,15.66,5.69,15.66-.69,1.34-10.9,0-11.74-4.92-.78-4.58-1.52-8.29,0-10.74C772.61,347.78,777.49,347.45,777.5,349.5Z"/><rect class="cls-1" x="865" y="215" width="188" height="151" rx="12" ry="12"/><path class="cls-1" d="M1052.5,343.55c0,7.92.73,21.3,5.69,21.3-.69,1.83-10.9,0-11.74-6.68-.78-6.24-1.52-11.29,0-14.62C1047.61,341.21,1052.49,340.77,1052.5,343.55Z"/><rect class="cls-1" x="1140" y="180" width="188" height="186" rx="12" ry="12"/><path class="cls-1" d="M1327.5,338.35c0,9.76.73,26.24,5.69,26.24-.69,2.25-10.9,0-11.74-8.23-.78-7.69-1.52-13.91,0-18C1322.61,335.47,1327.49,334.92,1327.5,338.35Z"/><rect class="cls-1" x="1415" y="137" width="188" height="229" rx="12" ry="12"/><path class="cls-1" d="M1602.5,332c0,12,.73,32.3,5.69,32.3-.69,2.77-10.9,0-11.74-10.13-.78-9.47-1.52-17.12,0-22.17C1597.61,328.41,1602.49,327.74,1602.5,332Z"/><rect class="cls-1" x="1690" y="90" width="188" height="276" rx="12" ry="12"/><path class="cls-1" d="M1877.5,325c0,14.48.73,38.94,5.69,38.94-.69,3.33-10.9,0-11.74-12.22-.78-11.41-1.52-20.63,0-26.72C1872.61,320.69,1877.49,319.88,1877.5,325Z"/><rect class="cls-1" x="1965" y="63" width="188" height="303" rx="12" ry="12"/><path class="cls-1" d="M2152.5,319c0,16.57.73,44.57,5.69,44.57-.69,3.82-10.9,0-11.74-14-.78-13.07-1.52-23.63.05-30.59C2147.61,314.13,2152.49,313.2,2152.5,319Z"/><line class="cls-2" x1="274.5" x2="274.5" y2="408"/><line class="cls-2" x1="274.5" y1="-0.5" x2="274.5" y2="407.5"/><line class="cls-2" x1="549.5" x2="549.5" y2="408"/><line class="cls-2" x1="549.5" x2="549.5" y2="408"/><line class="cls-2" x1="549.5" y1="-0.5" x2="549.5" y2="407.5"/><line class="cls-2" x1="824.5" x2="824.5" y2="408"/><line class="cls-2" x1="824.5" x2="824.5" y2="408"/><line class="cls-2" x1="824.5" y1="-0.5" x2="824.5" y2="407.5"/><line class="cls-2" x1="1099.5" x2="1099.5" y2="408"/><line class="cls-2" x1="1099.5" x2="1099.5" y2="408"/><line class="cls-2" x1="1099.5" y1="-0.5" x2="1099.5" y2="407.5"/><line class="cls-2" x1="1374.5" x2="1374.5" y2="408"/><line class="cls-2" x1="1374.5" x2="1374.5" y2="408"/><line class="cls-2" x1="1374.5" y1="-0.5" x2="1374.5" y2="407.5"/><line class="cls-2" x1="1649.5" x2="1649.5" y2="408"/><line class="cls-2" x1="1649.5" x2="1649.5" y2="408"/><line class="cls-2" x1="1649.5" y1="-0.5" x2="1649.5" y2="407.5"/><line class="cls-2" x1="1924.5" x2="1924.5" y2="408"/><line class="cls-2" x1="1924.5" x2="1924.5" y2="408"/><line class="cls-2" x1="1924.5" x2="1924.5" y2="408"/><line class="cls-2" x1="1924.5" y1="-0.5" x2="1924.5" y2="407.5"/><line class="cls-2" x1="2199.5" x2="2199.5" y2="408"/><line class="cls-2" x1="2199.5" x2="2199.5" y2="408"/><line class="cls-2" x1="2199.5" x2="2199.5" y2="408"/><line class="cls-2" x1="2199.5" x2="2199.5" y2="408"/><line class="cls-2" x1="2199.5" y1="-0.5" x2="2199.5" y2="407.5"/><rect class="cls-3" x="2256" y="57" width="156" height="10" rx="5" ry="5"/><rect class="cls-3" x="2256" y="129" width="156" height="10" rx="5" ry="5"/><rect class="cls-3" x="2256" y="177" width="116" height="10" rx="5" ry="5"/><rect class="cls-3" x="2256" y="201" width="103" height="10" rx="5" ry="5"/><rect class="cls-3" x="2256" y="249" width="103" height="10" rx="5" ry="5"/><rect class="cls-3" x="2256" y="273" width="39" height="10" rx="5" ry="5"/><rect class="cls-3" x="2256" y="297" width="94" height="10" rx="5" ry="5"/><rect class="cls-3" x="2256" y="321" width="116" height="10" rx="5" ry="5"/><rect class="cls-3" x="2256" y="105" width="130" height="10" rx="5" ry="5"/><rect class="cls-3" x="2256" y="81" width="80" height="10" rx="5" ry="5"/><text class="cls-4" transform="translate(2258 162.5)">HA Ha HaHA</text><text class="cls-4" transform="translate(2258 235.33)">!#@+&amp;$¤</text><text class="cls-4" transform="translate(2304.5 283)">HaaaaHAA</text><text class="cls-4" transform="translate(2342.5 91)">¤&amp;”@)!¤€%</text><rect class="cls-1" x="40" y="35" width="188" height="331" rx="12" ry="12"/><path class="cls-1" d="M227.5,349.5c0,5.82.73,15.66,5.69,15.66-.69,1.34-10.9,0-11.74-4.92-.78-4.58-1.52-8.29.05-10.74C222.61,347.78,227.49,347.45,227.5,349.5Z"/><rect class="cls-3" x="56" y="57" width="156" height="10" rx="5" ry="5"/><rect class="cls-3" x="56" y="129" width="156" height="10" rx="5" ry="5"/><rect class="cls-3" x="56" y="177" width="116" height="10" rx="5" ry="5"/><rect class="cls-3" x="56" y="201" width="103" height="10" rx="5" ry="5"/><rect class="cls-3" x="56" y="249" width="103" height="10" rx="5" ry="5"/><rect class="cls-3" x="56" y="273" width="39" height="10" rx="5" ry="5"/><rect class="cls-3" x="56" y="297" width="94" height="10" rx="5" ry="5"/><rect class="cls-3" x="56" y="321" width="116" height="10" rx="5" ry="5"/><rect class="cls-3" x="56" y="105" width="130" height="10" rx="5" ry="5"/><rect class="cls-3" x="56" y="81" width="80" height="10" rx="5" ry="5"/><text class="cls-4" transform="translate(58 162.5)">HA Ha HaHA</text><text class="cls-4" transform="translate(58 235.33)">!#@+&amp;$¤</text><text class="cls-4" transform="translate(104.5 283)">HaaaaHAA</text><text class="cls-4" transform="translate(142.5 91)">¤&amp;”@)!¤€%</text><rect class="cls-3" x="331" y="322" width="156" height="10" rx="5" ry="5"/><rect class="cls-3" x="606" y="277" width="156" height="10" rx="5" ry="5"/><rect class="cls-3" x="606" y="325" width="130" height="10" rx="5" ry="5"/><rect class="cls-3" x="606" y="301" width="80" height="10" rx="5" ry="5"/><text class="cls-4" transform="translate(692.5 311)">¤&amp;”@)!¤€%</text><rect class="cls-3" x="881" y="237" width="156" height="10" rx="5" ry="5"/><rect class="cls-3" x="881" y="309" width="156" height="10" rx="5" ry="5"/><rect class="cls-3" x="881" y="285" width="130" height="10" rx="5" ry="5"/><rect class="cls-3" x="881" y="261" width="80" height="10" rx="5" ry="5"/><text class="cls-4" transform="translate(883 342.5)">HA Ha HaHA</text><text class="cls-4" transform="translate(967.5 271)">¤&amp;”@)!¤€%</text><rect class="cls-3" x="1156" y="202" width="156" height="10" rx="5" ry="5"/><rect class="cls-3" x="1156" y="274" width="156" height="10" rx="5" ry="5"/><rect class="cls-3" x="1156" y="322" width="116" height="10" rx="5" ry="5"/><rect class="cls-3" x="1156" y="250" width="130" height="10" rx="5" ry="5"/><rect class="cls-3" x="1156" y="226" width="80" height="10" rx="5" ry="5"/><text class="cls-4" transform="translate(1158 307.5)">HA Ha HaHA</text><text class="cls-4" transform="translate(1242.5 236)">¤&amp;”@)!¤€%</text><rect class="cls-3" x="1431" y="159" width="156" height="10" rx="5" ry="5"/><rect class="cls-3" x="1431" y="231" width="156" height="10" rx="5" ry="5"/><rect class="cls-3" x="1431" y="279" width="116" height="10" rx="5" ry="5"/><rect class="cls-3" x="1431" y="303" width="103" height="10" rx="5" ry="5"/><rect class="cls-3" x="1431" y="207" width="130" height="10" rx="5" ry="5"/><rect class="cls-3" x="1431" y="183" width="80" height="10" rx="5" ry="5"/><text class="cls-4" transform="translate(1433 264.5)">HA Ha HaHA</text><text class="cls-4" transform="translate(1433 337.33)">!#@+&amp;$¤</text><text class="cls-4" transform="translate(1517.5 193)">¤&amp;”@)!¤€%</text><rect class="cls-3" x="1706" y="112" width="156" height="10" rx="5" ry="5"/><rect class="cls-3" x="1706" y="184" width="156" height="10" rx="5" ry="5"/><rect class="cls-3" x="1706" y="232" width="116" height="10" rx="5" ry="5"/><rect class="cls-3" x="1706" y="256" width="103" height="10" rx="5" ry="5"/><rect class="cls-3" x="1706" y="304" width="103" height="10" rx="5" ry="5"/><rect class="cls-3" x="1706" y="328" width="39" height="10" rx="5" ry="5"/><rect class="cls-3" x="1706" y="160" width="130" height="10" rx="5" ry="5"/><rect class="cls-3" x="1706" y="136" width="80" height="10" rx="5" ry="5"/><text class="cls-4" transform="translate(1708 217.5)">HA Ha HaHA</text><text class="cls-4" transform="translate(1708 290.33)">!#@+&amp;$¤</text><text class="cls-4" transform="translate(1792.5 146)">¤&amp;”@)!¤€%</text><rect class="cls-3" x="1978" y="86" width="156" height="10" rx="5" ry="5"/><rect class="cls-3" x="1978" y="158" width="156" height="10" rx="5" ry="5"/><rect class="cls-3" x="1978" y="206" width="116" height="10" rx="5" ry="5"/><rect class="cls-3" x="1978" y="230" width="103" height="10" rx="5" ry="5"/><rect class="cls-3" x="1978" y="278" width="103" height="10" rx="5" ry="5"/><rect class="cls-3" x="1978" y="302" width="39" height="10" rx="5" ry="5"/><rect class="cls-3" x="1978" y="326" width="94" height="10" rx="5" ry="5"/><rect class="cls-3" x="1978" y="134" width="130" height="10" rx="5" ry="5"/><rect class="cls-3" x="1978" y="110" width="80" height="10" rx="5" ry="5"/><text class="cls-4" transform="translate(1980 191.5)">HA Ha HaHA</text><text class="cls-4" transform="translate(1980 264.33)">!#@+&amp;$¤</text><text class="cls-4" transform="translate(2026.5 312)">HaaaaHAA</text><text class="cls-4" transform="translate(2064.5 120)">¤&amp;”@)!¤€%</text></svg>